<svg width="90" height="93" viewBox="0 0 90 93" fill="none" xmlns="http://www.w3.org/2000/svg">
<path fill-rule="evenodd" clip-rule="evenodd" d="M59.7089 55.1395C73.4771 55.1395 84.6385 43.9781 84.6385 30.2099C84.6385 16.4416 73.4771 5.28027 59.7089 5.28027C45.9406 5.28027 34.7793 16.4416 34.7793 30.2099C34.7793 43.9781 45.9406 55.1395 59.7089 55.1395ZM59.7089 60.1395C76.2385 60.1395 89.6385 46.7395 89.6385 30.2099C89.6385 13.6802 76.2385 0.280273 59.7089 0.280273C43.1792 0.280273 29.7793 13.6802 29.7793 30.2099C29.7793 33.2879 30.2439 36.2574 31.1069 39.0521L1.12538 69.0336L0.393144 69.7659V70.8014L0.393143 83.3551V83.3553L0.392758 89.386L0.392578 92.2005L3.18745 91.8688L19.8006 89.8967L20.661 89.7946L21.2737 89.1819L26.6155 83.8402L27.3477 83.1079V82.0724V76.2083L34.2253 75.4528L36.4523 75.2082L36.4523 72.9678L36.4523 69.4443H39.9758H42.4758V66.9443V65.8024H43.6176H44.6532L45.3854 65.0702L51.4657 58.9899C54.0843 59.7386 56.8498 60.1395 59.7089 60.1395ZM46.373 57.0116C40.7243 54.1955 36.0911 49.6462 33.1699 44.0602L5.39314 71.8369V77.3198L29.5474 53.1655L33.0829 56.7011L5.39308 84.3909L5.39294 86.5719L18.3508 85.0337L22.3477 81.0369V73.9678V71.7274L24.5747 71.4828L31.4523 70.7273L31.4523 66.9443V64.4443L33.9523 64.4443H37.4758V63.3024V60.8024H39.9758H42.5821L46.373 57.0116ZM68.7834 25.21C70.5003 25.21 71.8921 23.8182 71.8921 22.1013C71.8921 20.3845 70.5003 18.9927 68.7834 18.9927C67.0666 18.9927 65.6748 20.3845 65.6748 22.1013C65.6748 23.8182 67.0666 25.21 68.7834 25.21ZM68.7834 30.21C73.2617 30.21 76.8921 26.5796 76.8921 22.1013C76.8921 17.623 73.2617 13.9927 68.7834 13.9927C64.3051 13.9927 60.6748 17.623 60.6748 22.1013C60.6748 26.5796 64.3051 30.21 68.7834 30.21Z" fill="black"/>
</svg>
