<svg width="13" height="20" viewBox="0 0 13 20" fill="none" xmlns="http://www.w3.org/2000/svg">
<path d="M4.08938 0.585785C3.30833 -0.195263 2.042 -0.195261 1.26096 0.585788C0.479908 1.36684 0.47991 2.63317 1.26096 3.41422L4.08938 0.585785ZM10.6752 9.99998L12.0894 11.4142C12.4645 11.0391 12.6752 10.5304 12.6752 9.99998C12.6752 9.46955 12.4645 8.96084 12.0894 8.58576L10.6752 9.99998ZM1.26096 16.5858C0.479909 17.3668 0.479909 18.6331 1.26096 19.4142C2.04201 20.1952 3.30834 20.1952 4.08938 19.4142L1.26096 16.5858ZM1.26096 3.41422L9.26096 11.4142L12.0894 8.58576L4.08938 0.585785L1.26096 3.41422ZM9.26096 8.58577L1.26096 16.5858L4.08938 19.4142L12.0894 11.4142L9.26096 8.58577Z" fill="black"/>
</svg>
