<svg width="13" height="20" viewBox="0 0 13 20" fill="none" xmlns="http://www.w3.org/2000/svg">
<path d="M9.26096 19.4142C10.042 20.1953 11.3083 20.1953 12.0894 19.4142C12.8704 18.6332 12.8704 17.3668 12.0894 16.5858L9.26096 19.4142ZM2.67517 10L1.26096 8.58581C0.885885 8.96088 0.675171 9.46959 0.675171 10C0.675172 10.5305 0.885886 11.0392 1.26096 11.4142L2.67517 10ZM12.0894 3.41423C12.8704 2.63318 12.8704 1.36685 12.0894 0.585806C11.3083 -0.195242 10.042 -0.195242 9.26096 0.585806L12.0894 3.41423ZM12.0894 16.5858L4.08938 8.5858L1.26096 11.4142L9.26096 19.4142L12.0894 16.5858ZM4.08938 11.4142L12.0894 3.41423L9.26096 0.585806L1.26096 8.58581L4.08938 11.4142Z" fill="black"/>
</svg>
