<svg width="27" height="21" viewBox="0 0 27 21" fill="none" xmlns="http://www.w3.org/2000/svg">
<path fill-rule="evenodd" clip-rule="evenodd" d="M0.929626 2.6044C0.929626 1.56352 1.77343 0.719727 2.8143 0.719727H25.0449C26.0858 0.719727 26.9296 1.56352 26.9296 2.6044V2.6044C26.9296 3.64528 26.0858 4.48908 25.0449 4.48908H2.8143C1.77343 4.48908 0.929626 3.64528 0.929626 2.6044V2.6044ZM0.929626 10.7197C0.929626 9.67885 1.77343 8.83505 2.8143 8.83505H25.0449C26.0858 8.83505 26.9296 9.67885 26.9296 10.7197V10.7197C26.9296 11.7606 26.0858 12.6044 25.0449 12.6044H2.8143C1.77343 12.6044 0.929626 11.7606 0.929626 10.7197V10.7197ZM26.9296 18.835C26.9296 17.7942 26.0858 16.9504 25.0449 16.9504H2.8143C1.77343 16.9504 0.929626 17.7942 0.929626 18.835V18.835C0.929626 19.8759 1.77343 20.7197 2.8143 20.7197H25.0449C26.0858 20.7197 26.9296 19.8759 26.9296 18.835V18.835Z" fill="black"/>
</svg>
