<svg width="1026" height="1019" viewBox="0 0 1026 1019" fill="none" xmlns="http://www.w3.org/2000/svg">
<path fill-rule="evenodd" clip-rule="evenodd" d="M516.896 1002.02C788.97 1002.02 1009.53 781.455 1009.53 509.381C1009.53 237.306 788.97 16.7463 516.896 16.7463C344.587 16.7463 192.941 105.21 104.896 239.197C142.018 248.104 169.609 281.514 169.609 321.368C169.609 368.036 131.777 405.868 85.1094 405.868C67.8332 405.868 51.7679 400.683 38.3846 391.785C29.1555 429.468 24.2616 468.853 24.2616 509.381C24.2616 781.455 244.822 1002.02 516.896 1002.02ZM516.896 0.746338C336.23 0.746338 177.565 94.94 87.3298 236.897C86.5919 236.878 85.8518 236.868 85.1094 236.868C38.4413 236.868 0.609375 274.7 0.609375 321.368C0.609375 344.383 9.81065 365.249 24.7353 380.488C13.9846 421.652 8.2616 464.848 8.2616 509.381C8.2616 790.292 235.985 1018.02 516.896 1018.02C797.807 1018.02 1025.53 790.292 1025.53 509.381C1025.53 228.47 797.807 0.746338 516.896 0.746338ZM416.412 368.001H388.412V396.001H416.412V368.001ZM159.817 576.881V543.761H185.117V576.881H159.817ZM284.388 579.181C274.881 579.181 266.601 577.111 259.548 572.971C252.494 568.677 246.974 562.927 242.988 555.721V625.871H212.168V456.361H239.078V477.061C243.524 470.007 249.274 464.487 256.328 460.501C263.381 456.361 271.508 454.291 280.708 454.291C288.834 454.291 296.348 455.977 303.248 459.351C310.148 462.571 316.051 467.017 320.958 472.691C326.018 478.211 329.928 484.804 332.688 492.471C335.601 499.984 337.058 507.957 337.058 516.391C337.058 525.131 335.754 533.334 333.148 541.001C330.541 548.667 326.861 555.337 322.108 561.011C317.508 566.684 311.988 571.131 305.548 574.351C299.108 577.571 292.054 579.181 284.388 579.181ZM274.038 552.961C278.638 552.961 282.854 551.964 286.688 549.971C290.674 547.977 294.048 545.294 296.808 541.921C299.568 538.547 301.714 534.637 303.248 530.191C304.781 525.744 305.548 521.144 305.548 516.391C305.548 511.331 304.704 506.654 303.018 502.361C301.331 497.914 298.954 494.081 295.888 490.861C292.974 487.641 289.448 485.111 285.308 483.271C281.321 481.431 276.951 480.511 272.198 480.511C269.284 480.511 266.294 481.047 263.228 482.121C260.161 483.041 257.324 484.421 254.718 486.261C252.111 488.101 249.734 490.247 247.588 492.701C245.594 495.154 244.061 497.837 242.988 500.751V529.041C245.748 535.941 249.964 541.691 255.638 546.291C261.311 550.737 267.444 552.961 274.038 552.961ZM413.599 579.181C403.786 579.181 394.969 577.494 387.149 574.121C379.329 570.747 372.659 566.224 367.139 560.551C361.772 554.724 357.632 548.054 354.719 540.541C351.806 533.027 350.349 525.131 350.349 516.851C350.349 508.417 351.806 500.444 354.719 492.931C357.632 485.417 361.772 478.824 367.139 473.151C372.659 467.324 379.329 462.724 387.149 459.351C394.969 455.977 403.786 454.291 413.599 454.291C423.412 454.291 432.152 455.977 439.819 459.351C447.639 462.724 454.232 467.324 459.599 473.151C465.119 478.824 469.336 485.417 472.249 492.931C475.162 500.444 476.619 508.417 476.619 516.851C476.619 525.131 475.162 533.027 472.249 540.541C469.336 548.054 465.196 554.724 459.829 560.551C454.462 566.224 447.869 570.747 440.049 574.121C432.229 577.494 423.412 579.181 413.599 579.181ZM382.089 516.851C382.089 522.217 382.856 527.124 384.389 531.571C386.076 535.864 388.299 539.621 391.059 542.841C393.972 546.061 397.346 548.591 401.179 550.431C405.012 552.117 409.152 552.961 413.599 552.961C418.046 552.961 422.186 552.117 426.019 550.431C429.852 548.591 433.149 546.061 435.909 542.841C438.822 539.621 441.046 535.787 442.579 531.341C444.266 526.894 445.109 521.987 445.109 516.621C445.109 511.407 444.266 506.577 442.579 502.131C441.046 497.684 438.822 493.851 435.909 490.631C433.149 487.411 429.852 484.957 426.019 483.271C422.186 481.431 418.046 480.511 413.599 480.511C409.152 480.511 405.012 481.431 401.179 483.271C397.346 485.111 393.972 487.641 391.059 490.861C388.299 494.081 386.076 497.914 384.389 502.361C382.856 506.807 382.089 511.637 382.089 516.851ZM542.961 579.181C532.841 579.181 522.951 577.571 513.291 574.351C503.631 571.131 495.351 566.531 488.451 560.551L499.951 541.231C507.311 546.444 514.441 550.431 521.341 553.191C528.395 555.797 535.371 557.101 542.271 557.101C548.405 557.101 553.235 555.951 556.761 553.651C560.288 551.351 562.051 548.054 562.051 543.761C562.051 539.467 559.981 536.324 555.841 534.331C551.701 532.337 544.955 530.037 535.601 527.431C527.781 525.284 521.111 523.214 515.591 521.221C510.071 519.227 505.625 517.004 502.251 514.551C498.878 511.944 496.425 509.031 494.891 505.811C493.358 502.437 492.591 498.451 492.591 493.851C492.591 487.717 493.741 482.197 496.041 477.291C498.495 472.384 501.868 468.244 506.161 464.871C510.455 461.344 515.438 458.661 521.111 456.821C526.938 454.981 533.225 454.061 539.971 454.061C549.018 454.061 557.451 455.364 565.271 457.971C573.245 460.577 580.528 464.794 587.121 470.621L574.701 489.251C568.568 484.651 562.588 481.277 556.761 479.131C551.088 476.984 545.415 475.911 539.741 475.911C534.528 475.911 530.158 476.984 526.631 479.131C523.105 481.277 521.341 484.727 521.341 489.481C521.341 491.627 521.725 493.391 522.491 494.771C523.411 496.151 524.791 497.377 526.631 498.451C528.471 499.524 530.848 500.597 533.761 501.671C536.828 502.591 540.585 503.587 545.031 504.661C553.311 506.807 560.365 508.954 566.191 511.101C572.171 513.247 577.001 515.701 580.681 518.461C584.515 521.221 587.275 524.441 588.961 528.121C590.801 531.647 591.721 535.941 591.721 541.001C591.721 552.807 587.351 562.161 578.611 569.061C569.871 575.807 557.988 579.181 542.961 579.181ZM611.748 456.361H642.568V576.881H611.748V456.361ZM611.748 439.571V408.981H642.568V439.571H611.748ZM742.591 570.671C738.451 572.511 733.391 574.351 727.411 576.191C721.431 578.031 715.144 578.951 708.551 578.951C704.257 578.951 700.194 578.414 696.361 577.341C692.681 576.267 689.384 574.581 686.471 572.281C683.711 569.827 681.487 566.761 679.801 563.081C678.114 559.247 677.271 554.647 677.271 549.281V480.051H661.401V456.361H677.271V417.261H708.091V456.361H733.391V480.051H708.091V538.931C708.091 543.224 709.164 546.291 711.311 548.131C713.611 549.817 716.371 550.661 719.591 550.661C722.811 550.661 725.954 550.124 729.021 549.051C732.087 547.977 734.541 547.057 736.381 546.291L742.591 570.671ZM811.612 579.181C801.952 579.181 793.212 577.571 785.392 574.351C777.572 570.977 770.902 566.454 765.382 560.781C759.862 555.107 755.569 548.514 752.502 541.001C749.589 533.487 748.132 525.591 748.132 517.311C748.132 508.724 749.589 500.674 752.502 493.161C755.416 485.494 759.632 478.824 765.152 473.151C770.672 467.324 777.342 462.724 785.162 459.351C793.136 455.977 802.029 454.291 811.842 454.291C821.656 454.291 830.396 455.977 838.062 459.351C845.882 462.724 852.476 467.247 857.842 472.921C863.362 478.594 867.502 485.187 870.262 492.701C873.176 500.214 874.632 508.034 874.632 516.161C874.632 518.154 874.556 520.071 874.402 521.911C874.402 523.751 874.249 525.284 873.942 526.511H780.792C781.252 531.264 782.402 535.481 784.242 539.161C786.082 542.841 788.459 545.984 791.372 548.591C794.286 551.197 797.582 553.191 801.262 554.571C804.942 555.951 808.776 556.641 812.762 556.641C818.896 556.641 824.646 555.184 830.012 552.271C835.532 549.204 839.289 545.217 841.282 540.311L867.732 547.671C863.286 556.871 856.156 564.461 846.342 570.441C836.682 576.267 825.106 579.181 811.612 579.181ZM780.332 506.501H842.892C842.126 497.454 838.752 490.247 832.772 484.881C826.946 479.361 819.816 476.601 811.382 476.601C807.242 476.601 803.332 477.367 799.652 478.901C796.126 480.281 792.982 482.274 790.222 484.881C787.462 487.487 785.162 490.631 783.322 494.311C781.636 497.991 780.639 502.054 780.332 506.501ZM267.375 673.809H295.375V701.809H267.375V673.809ZM267.375 368.001H295.375V396.001H267.375V368.001Z" fill="white"/>
</svg>
