<svg width="88" height="100" viewBox="0 0 88 100" fill="none" xmlns="http://www.w3.org/2000/svg">
<path fill-rule="evenodd" clip-rule="evenodd" d="M61.134 24.9999C61.134 36.586 52.9072 44.9465 43.9591 44.9465C35.011 44.9465 26.7842 36.586 26.7842 24.9999C26.7842 13.4139 35.011 5.05334 43.9591 5.05334C52.9072 5.05334 61.134 13.4139 61.134 24.9999ZM66.134 24.9999C66.134 38.7776 56.2059 49.9465 43.9591 49.9465C31.7122 49.9465 21.7842 38.7776 21.7842 24.9999C21.7842 11.2223 31.7122 0.0533447 43.9591 0.0533447C56.2059 0.0533447 66.134 11.2223 66.134 24.9999ZM29.8255 58.1633C31.0679 57.5609 31.5867 56.0654 30.9842 54.823C30.3818 53.5807 28.8863 53.0619 27.644 53.6643L2.15239 66.0251L0.743164 66.7085V68.2746V83.0787V83.9583L1.29395 84.6441C4.69813 88.8829 8.66062 92.6487 15.4009 95.2853C22.0344 97.8801 31.192 99.317 44.8937 99.317C58.8467 99.317 67.5833 97.8857 73.7288 95.2554C79.9945 92.5737 83.3397 88.7351 86.6251 84.6441L87.1759 83.9583V83.0787V68.2746V66.719L85.7803 66.0318L60.6765 53.671C59.4379 53.061 57.9393 53.5708 57.3293 54.8095C56.7194 56.0482 57.2291 57.5468 58.4678 58.1567L82.1759 69.8303V82.1949C79.242 85.799 76.5593 88.6053 71.7614 90.6588C66.5449 92.8914 58.6128 94.317 44.8937 94.317C31.466 94.317 23.0207 92.897 17.2224 90.6289C11.8726 88.5362 8.63744 85.6686 5.74316 82.1877V69.8408L29.8255 58.1633Z" fill="black"/>
</svg>
